<svg width="48" height="48" viewBox="0 0 48 48" fill="none" xmlns="http://www.w3.org/2000/svg">
<mask id="mask0_75_2326" style="mask-type:luminance" maskUnits="userSpaceOnUse" x="0" y="0" width="48" height="48">
<path d="M0 0.000141144H47.9999V48H0V0.000141144Z" fill="white"/>
</mask>
<g mask="url(#mask0_75_2326)">
<path d="M21.5211 3.15579V15.7351C21.5211 17.0898 20.4243 18.1876 19.0696 18.1876H5.2143C3.85868 18.1876 2.76172 17.0898 2.76172 15.7351V3.15579C2.76172 1.80111 3.85868 0.703299 5.2143 0.703299H19.0696C20.4243 0.703299 21.5211 1.80111 21.5211 3.15579Z" fill="#FFE7E4"/>
<path d="M19.0698 0.703299H16.73C18.084 0.703299 19.1812 1.80139 19.1812 3.15551V15.7355C19.1812 17.0895 18.084 18.1876 16.73 18.1876H19.0698C20.4238 18.1876 21.5211 17.0895 21.5211 15.7355V3.15551C21.5211 1.80139 20.4238 0.703299 19.0698 0.703299Z" fill="#FFD5D1"/>
<path d="M21.5213 25.8844V44.8453C21.5213 46.2 20.4244 47.2969 19.0697 47.2969H5.21445C3.85883 47.2969 2.76186 46.2 2.76186 44.8453V25.8844C2.74696 24.5476 3.88602 23.4179 5.21445 23.4338H19.0697C20.3972 23.4254 21.5277 24.526 21.5213 25.8844Z" fill="#FFE7E4"/>
<path d="M19.0698 23.4338H16.73C18.057 23.4256 19.1886 24.5261 19.1815 25.8844V44.8453C19.1815 46.2 18.0847 47.2969 16.73 47.2969H19.0698C20.4245 47.2969 21.5213 46.2 21.5213 44.8453V25.8844C21.5284 24.5261 20.3968 23.4256 19.0698 23.4338Z" fill="#FFD5D1"/>
<path d="M21.5212 3.15551V6.05847H2.76172V3.15551C2.76172 1.80148 3.85906 0.7033 5.21402 0.7033H19.07C20.424 0.7033 21.5212 1.80148 21.5212 3.15551Z" fill="#FA9F96"/>
<path d="M21.5212 25.8845V28.997C18.3065 30.4407 14.3971 29.8426 11.7571 27.2026C10.6706 26.116 9.92984 24.8138 9.53516 23.4338H19.0696C20.3971 23.4254 21.5276 24.526 21.5212 25.8845Z" fill="#FFD5D1"/>
<path d="M19.0698 0.7033H16.73C18.084 0.7033 19.1812 1.80139 19.1812 3.15551V6.05847H21.5211V3.15551C21.5211 1.80139 20.4238 0.7033 19.0698 0.7033Z" fill="#FF5241"/>
<path d="M21.5213 25.8845V28.8132H2.76186V25.8845C2.74696 24.5476 3.88602 23.4179 5.21445 23.4339H19.0697C20.3972 23.4254 21.5277 24.5261 21.5213 25.8845Z" fill="#FA9F96"/>
<path d="M21.5212 13.0454V15.7351C21.5212 17.0898 20.4243 18.1876 19.0696 18.1876H9.66748C10.0847 16.9642 10.7811 15.8158 11.7572 14.8398C14.3972 12.1998 18.3065 11.6008 21.5212 13.0454Z" fill="#FFD5D1"/>
<path d="M21.5212 25.8845V28.8132H13.9723C13.1737 28.4073 12.4246 27.8701 11.7571 27.2026C10.6706 26.1161 9.92984 24.8139 9.53516 23.4339H19.0696C20.3971 23.4254 21.5276 24.5261 21.5212 25.8845Z" fill="#FF5241"/>
<path d="M45.2381 3.60795V15.3241C45.2381 16.9059 43.9565 18.1875 42.3757 18.1875H36.2912L33.4108 22.7236C33.001 23.369 32.0023 23.0787 32.0023 22.3142V18.1875H29.4127C27.8319 18.1875 26.5493 16.9059 26.5493 15.3241V3.60795C26.5493 2.02612 27.8319 0.744556 29.4127 0.744556H42.3757C43.9565 0.744556 45.2381 2.02612 45.2381 3.60795Z" fill="#FA9F96"/>
<path d="M32.0024 21.2569V22.3142C32.0024 23.0787 33.0011 23.369 33.4109 22.7236L36.2914 18.1875H34.9794C34.6645 18.1875 34.3546 18.267 34.0787 18.4186C33.8027 18.5703 33.5695 18.7892 33.4006 19.055L32.0024 21.2569Z" fill="#FF5241"/>
<path d="M42.376 0.744522H40.0361C41.6169 0.744522 42.8986 2.02617 42.8986 3.60792V15.3241C42.8986 16.9058 41.6169 18.1875 40.0361 18.1875H42.376C43.9567 18.1875 45.2384 16.9058 45.2384 15.3241V3.60792C45.2384 2.02617 43.9567 0.744522 42.376 0.744522Z" fill="#FF5241"/>
<path d="M25.9911 14.8398C29.405 18.2537 29.405 23.7887 25.9911 27.2026C22.5772 30.6165 17.0422 30.6165 13.6283 27.2026C10.2144 23.7887 10.2144 18.2537 13.6283 14.8398C17.0422 11.4259 22.5772 11.4259 25.9911 14.8398Z" fill="#0268B4"/>
<path d="M25.9914 14.8397C24.0462 12.8944 21.4123 12.0594 18.8745 12.331C20.7904 12.5361 22.6518 13.3711 24.1204 14.8397C27.5343 18.2536 27.5343 23.7887 24.1204 27.2026C22.6518 28.6712 20.7904 29.5062 18.8745 29.7112C21.4123 29.9829 24.0462 29.1479 25.9914 27.2026C29.4053 23.7887 29.4053 18.2536 25.9914 14.8397Z" fill="#015A9B"/>
<path d="M19.8098 26.9401C18.2288 26.9401 16.7424 26.3244 15.6244 25.2064C13.3166 22.8987 13.3166 19.1436 15.6244 16.8359C16.7424 15.7179 18.2288 15.1023 19.8098 15.1023C21.3907 15.1023 22.8771 15.7179 23.9951 16.8359C26.3029 19.1436 26.3029 22.8987 23.9951 25.2064C22.8771 26.3244 21.3907 26.9401 19.8098 26.9401Z" fill="#FFD5D1"/>
<path d="M23.9948 16.8358C22.8769 15.7178 21.3905 15.1022 19.8096 15.1022C19.4121 15.1022 19.0207 15.1413 18.6396 15.2172C19.7746 15.4436 20.818 15.9989 21.655 16.8358C23.9628 19.1435 23.9628 22.8986 21.655 25.2063C20.818 26.0432 19.7746 26.5985 18.6396 26.8249C19.0249 26.9016 19.4168 26.9401 19.8096 26.9399C21.3905 26.9399 22.8769 26.3243 23.9948 25.2063C26.3027 22.8986 26.3027 19.1435 23.9948 16.8358Z" fill="#FA9F96"/>
<path d="M28.1436 30.3842L29.1729 29.3549C29.9249 28.6029 31.1439 28.6029 31.8958 29.3549L35.0646 32.5236C35.8166 33.2755 35.8166 34.4946 35.0646 35.2465L34.0352 36.2759C33.2833 37.0278 32.0642 37.0278 31.3123 36.2759L28.1436 33.1071C27.3916 32.3552 27.3916 31.1362 28.1436 30.3842Z" fill="#F07181"/>
<path d="M35.0648 32.5236L31.896 29.3549C31.1441 28.6029 29.9251 28.6029 29.1731 29.3549L28.9351 29.5929C29.4641 29.5625 30.0031 29.7474 30.4072 30.1515L32.7249 32.5236C33.4769 33.2756 33.4769 34.4946 32.7249 35.2465L32.2363 35.7811C31.9861 36.0313 31.6713 36.2072 31.3271 36.2892C32.0801 37.0271 33.2881 37.0231 34.0354 36.2759L35.0648 35.2465C35.8168 34.4946 35.8168 33.2756 35.0648 32.5236Z" fill="#EB5569"/>
<path d="M35.128 15.2248C35.1269 15.3195 35.1446 15.4134 35.1801 15.5012C35.2156 15.5889 35.2681 15.6687 35.3346 15.7361C35.4012 15.8034 35.4804 15.8568 35.5678 15.8933C35.6551 15.9297 35.7488 15.9485 35.8435 15.9485C35.9381 15.9485 36.0318 15.9297 36.1192 15.8932C36.2065 15.8567 36.2857 15.8033 36.3523 15.736C36.4188 15.6687 36.4713 15.5888 36.5068 15.5011C36.5423 15.4133 36.56 15.3194 36.5589 15.2248C36.5567 15.0364 36.4804 14.8565 36.3464 14.7241C36.2125 14.5917 36.0317 14.5175 35.8434 14.5175C35.655 14.5175 35.4743 14.5918 35.3404 14.7242C35.2064 14.8566 35.1301 15.0365 35.128 15.2248Z" fill="black"/>
<path d="M5.58496 3.39577C5.58496 3.48972 5.60347 3.58274 5.63942 3.66953C5.67537 3.75632 5.72807 3.83518 5.7945 3.90161C5.86094 3.96803 5.9398 4.02072 6.0266 4.05666C6.1134 4.0926 6.20642 4.1111 6.30037 4.11108C6.44184 4.11107 6.58012 4.0691 6.69774 3.99049C6.81536 3.91188 6.90703 3.80015 6.96116 3.66945C7.01528 3.53874 7.02944 3.39492 7.00183 3.25617C6.97421 3.11742 6.90608 2.98997 6.80604 2.88994C6.706 2.78991 6.57854 2.72179 6.43979 2.6942C6.30103 2.66661 6.15721 2.68078 6.02651 2.73492C5.89581 2.78906 5.7841 2.88075 5.70551 2.99838C5.62691 3.11601 5.58496 3.2543 5.58496 3.39577Z" fill="black"/>
<path d="M5.58496 26.056C5.58496 26.2457 5.66033 26.4277 5.7945 26.5618C5.92866 26.696 6.11063 26.7714 6.30037 26.7714C6.4901 26.7714 6.67207 26.696 6.80623 26.5618C6.9404 26.4277 7.01577 26.2457 7.01577 26.056C7.01577 25.8662 6.9404 25.6843 6.80623 25.5501C6.67207 25.4159 6.4901 25.3406 6.30037 25.3406C6.11063 25.3406 5.92866 25.4159 5.7945 25.5501C5.66033 25.6843 5.58496 25.8662 5.58496 26.056Z" fill="black"/>
</g>
</svg>
