<svg width="38" height="38" viewBox="0 0 38 38" fill="none" xmlns="http://www.w3.org/2000/svg">
<g id="pdf-02">
<path id="elements" d="M11.0835 28.4999V24.5416M11.0835 24.5416V22.1666C11.0835 21.4202 11.0835 21.047 11.327 20.8151C11.5704 20.5833 11.9623 20.5833 12.746 20.5833H13.8543C15.002 20.5833 15.9325 21.4694 15.9325 22.5624C15.9325 23.6555 15.002 24.5416 13.8543 24.5416H11.0835ZM33.2502 20.5833H31.172C29.8659 20.5833 29.2128 20.5833 28.807 20.9697C28.4012 21.3562 28.4012 21.9782 28.4012 23.2221V24.5416M28.4012 28.4999V24.5416M28.4012 24.5416H31.8647M24.9377 24.5416C24.9377 26.7277 23.0768 28.4999 20.7814 28.4999C20.2635 28.4999 20.0045 28.4999 19.8116 28.3939C19.3498 28.1399 19.396 27.6259 19.396 27.1805V21.9027C19.396 21.4573 19.3498 20.9433 19.8116 20.6893C20.0045 20.5833 20.2635 20.5833 20.7814 20.5833C23.0768 20.5833 24.9377 22.3555 24.9377 24.5416Z" stroke="#FF5241" stroke-width="2" stroke-linecap="round" stroke-linejoin="round"/>
<path id="elements_2" d="M23.7498 34.8333H16.9847C11.8211 34.8333 9.23932 34.8333 7.44636 33.57C6.93265 33.2081 6.47659 32.7788 6.09203 32.2953C4.74984 30.6079 4.74984 28.1779 4.74984 23.3181V19.2878C4.74984 14.5961 4.74984 12.2503 5.49232 10.3767C6.68596 7.36467 9.2103 4.98882 12.4106 3.86539C14.4012 3.16659 16.8937 3.16658 21.8786 3.16658C24.7271 3.16658 26.1514 3.16658 27.2889 3.5659C29.1177 4.20786 30.5601 5.56549 31.2422 7.28664C31.6665 8.35726 31.6665 9.69774 31.6665 12.3787V15.8333" stroke="#FF5241" stroke-width="2" stroke-linecap="round" stroke-linejoin="round"/>
<path id="elements_3" d="M4.75016 19C4.75016 16.0852 7.1131 13.7222 10.0279 13.7222C11.0821 13.7222 12.3249 13.9069 13.3498 13.6323C14.2605 13.3883 14.9718 12.677 15.2158 11.7663C15.4904 10.7414 15.3057 9.4986 15.3057 8.44444C15.3057 5.52961 17.6687 3.16667 20.5835 3.16667" stroke="#FF5241" stroke-width="2" stroke-linecap="round" stroke-linejoin="round"/>
</g>
</svg>
