<svg width="16" height="16" viewBox="0 0 16 16" fill="none" xmlns="http://www.w3.org/2000/svg">
<g id="elements">
<path id="Vector" d="M6.20953 1.34942C5.703 1.85596 5.20105 2.09112 4.47889 2.09112C3.84835 2.09112 2.95125 1.96883 2.4585 2.46573C1.96964 2.9587 2.09138 3.8521 2.09138 4.47863C2.09138 5.20081 1.8562 5.70275 1.34965 6.2093C0.505553 7.0534 0.0835034 7.47545 0.0834961 7.9999C0.0835091 8.52435 0.505563 8.94645 1.34967 9.79054C1.91712 10.358 2.09138 10.7244 2.09138 11.5212C2.09138 12.1517 1.96909 13.0488 2.46601 13.5416C2.95898 14.0304 3.85237 13.9087 4.47888 13.9087C5.24793 13.9087 5.61826 14.0591 6.16711 14.608C6.63448 15.0753 7.26098 15.9166 8.00018 15.9166C8.73937 15.9166 9.36586 15.0753 9.83321 14.608C10.3821 14.0591 10.7524 13.9087 11.5214 13.9087C12.148 13.9087 13.0414 14.0304 13.5343 13.5416C14.0312 13.0488 13.9089 12.1517 13.9089 11.5212C13.9089 10.7244 14.0832 10.358 14.6507 9.79054C15.4948 8.94645 15.9168 8.52435 15.9168 7.9999C15.9168 7.47545 15.4948 7.0534 14.6507 6.2093C14.0832 5.64184 13.9089 5.27546 13.9089 4.47863C13.9089 3.84809 14.0312 2.95101 13.5344 2.45825C13.0414 1.96937 12.148 2.09112 11.5214 2.09112C10.7991 2.09112 10.2972 1.85585 9.79079 1.34942C8.94668 0.505308 8.52463 0.0832521 8.00016 0.083252C7.4757 0.0832522 7.05364 0.505308 6.20953 1.34942Z" fill="#32E886"/>
<path id="Vector 6662" d="M5 8.71429C5 8.71429 6.2 9.23573 6.8 10C6.8 10 8.6 7 11 6" stroke="#141B34" stroke-width="1.1875" stroke-linecap="round" stroke-linejoin="round"/>
</g>
</svg>
